# xmcd
#
# Track frame offsets: 
#        182
#        22185
#        45902
#        66875
#        83785
#        104457
#        126237
#        151092
#        156397
#        179665
#        200200
#        217675
#        248537
#
# Disc length: 3650 seconds
#
# Revision: 5
# Processed by: cddbd v1.5.2PL0 Copyright (c) Steve Scherf et al.
# Submitted via: ExactAudioCopy v0.99pb4
#
DISCID=af0e400d
DTITLE=George Duke - Night After Night
DYEAR=1989
DGENRE=Pop-Funk
TTITLE0=Miss Wriggle
TTITLE1=Children Of The Night
TTITLE2=Love Ballad
TTITLE3=Guilty
TTITLE4=Same Ole Love
TTITLE5=Say Hello
TTITLE6=You Are The Only One In My Life
TTITLE7=Brazilian Coffee
TTITLE8=This Lovin'
TTITLE9=Mystery Eyes
TTITLE10=560 SL
TTITLE11=Fuzzzion
TTITLE12=Rise Up
EXTD=RECORD LABEL: ELEKTRA/ASYLUM RECORDS\nRELEASE YEAR: 1989
EXTT0=
EXTT1=
EXTT2=
EXTT3=
EXTT4=
EXTT5=
EXTT6=
EXTT7=
EXTT8=
EXTT9=
EXTT10=
EXTT11=
EXTT12=
PLAYORDER=
